<?xml version="1.0" standalone="no"?>
<!DOCTYPE svg PUBLIC "-//W3C//DTD SVG 20010904//EN"
 "http://www.w3.org/TR/2001/REC-SVG-20010904/DTD/svg10.dtd">
<svg version="1.0" xmlns="http://www.w3.org/2000/svg"
 viewBox="0 0 2600.000000 2600.000000"
 preserveAspectRatio="xMidYMid meet">
<metadata>
Created by potrace 1.15, written by Peter Selinger 2001-2017
</metadata>
<g transform="translate(0.000000,2600.000000) scale(0.100000,-0.100000)"
fill="#000000" stroke="none">
<path d="M5490 22473 c-611 -46 -1209 -259 -1698 -606 -241 -171 -512 -425
-686 -642 -493 -618 -746 -1336 -746 -2120 0 -285 35 -565 105 -833 40 -155
70 -215 137 -278 197 -184 516 -122 630 123 47 99 49 182 10 338 -63 249 -83
412 -83 665 1 510 144 985 424 1406 352 531 881 909 1502 1074 246 66 326 74
710 75 l350 0 67 32 c85 40 151 106 191 191 29 62 32 75 32 168 0 99 -1 104
-40 180 -32 62 -53 89 -100 127 -74 59 -147 83 -305 97 -106 9 -393 11 -500 3z"/>
<path d="M20765 22473 c-209 -17 -290 -47 -373 -137 -59 -65 -87 -122 -103
-209 -31 -167 68 -350 229 -425 l57 -27 290 3 c392 5 597 -21 888 -109 851
-260 1521 -965 1737 -1829 106 -423 106 -826 0 -1260 -40 -162 -43 -189 -30
-261 31 -169 170 -306 335 -328 168 -23 336 62 409 207 48 96 117 415 147 682
28 253 9 677 -42 950 -196 1038 -867 1926 -1809 2395 -388 194 -782 304 -1235
345 -101 9 -406 11 -500 3z"/>
<path d="M13140 21483 c-729 -74 -1354 -456 -1760 -1073 -342 -521 -459 -1215
-304 -1812 8 -33 14 -61 12 -63 -2 -1 -79 -27 -173 -57 -565 -184 -1179 -470
-1680 -783 -16 -10 303 315 709 723 l740 741 -79 73 c-237 221 -486 395 -775
542 -765 389 -1673 476 -2555 246 -890 -231 -1698 -778 -2261 -1530 -1035
-1381 -1088 -3203 -130 -4475 72 -96 208 -255 265 -310 l41 -39 741 739 741
740 -58 -95 c-594 -986 -965 -2078 -1089 -3205 -56 -513 -59 -1131 -9 -1640
85 -862 313 -1702 676 -2495 419 -916 1046 -1785 1779 -2468 99 -91 179 -169
179 -174 0 -4 -180 -305 -401 -669 -220 -365 -414 -688 -429 -719 -154 -304
-129 -690 62 -983 228 -349 659 -518 1066 -418 224 56 433 197 563 381 26 36
209 335 409 665 199 330 368 606 375 613 10 11 26 7 91 -26 725 -365 1628
-639 2459 -747 636 -82 1334 -86 1955 -10 858 105 1669 342 2443 713 101 48
182 81 186 76 5 -5 172 -279 371 -609 199 -330 378 -624 398 -655 55 -85 206
-228 300 -284 176 -105 363 -152 562 -143 255 13 464 104 647 280 307 296 388
769 198 1147 -18 36 -213 363 -434 728 l-402 663 58 51 c120 107 480 468 600
602 1682 1876 2363 4388 1857 6850 -105 512 -268 1028 -476 1511 -123 286
-342 712 -488 950 -24 39 -50 81 -58 95 -8 14 321 -310 732 -720 l747 -745 70
75 c766 822 1068 1946 838 3116 -266 1360 -1288 2551 -2609 3042 -733 272
-1508 322 -2231 142 -557 -138 -1078 -421 -1484 -803 l-80 -76 745 -746 c721
-723 742 -745 660 -695 -489 300 -1021 548 -1575 736 -126 42 -231 78 -233 80
-2 1 10 67 26 146 44 207 56 343 49 537 -7 195 -26 328 -72 506 -242 940
-1039 1637 -2002 1750 -115 13 -406 18 -503 8z m435 -804 c221 -28 439 -109
635 -236 345 -224 580 -563 678 -978 24 -99 26 -130 27 -315 0 -180 -3 -218
-24 -312 -20 -90 -27 -108 -42 -108 -10 0 -83 11 -161 25 -192 34 -484 71
-720 92 -242 21 -927 24 -1153 5 -294 -25 -642 -70 -857 -110 l-97 -19 -15 66
c-34 151 -40 203 -40 351 0 186 19 305 74 472 84 253 197 436 384 623 134 134
246 215 405 295 282 141 581 190 906 149z m365 -3424 c1061 -108 2017 -444
2875 -1009 1464 -966 2463 -2491 2754 -4206 266 -1561 -64 -3148 -934 -4485
-381 -587 -916 -1158 -1494 -1595 -46 -35 -107 -74 -135 -88 -67 -32 -128 -74
-203 -139 -112 -97 -496 -316 -801 -457 -683 -316 -1323 -488 -2117 -568 -202
-20 -886 -17 -1094 5 -836 90 -1523 288 -2232 643 -265 132 -582 318 -629 369
-35 38 -135 107 -200 140 -107 53 -390 279 -648 516 -1025 947 -1717 2237
-1936 3614 -87 550 -101 1133 -40 1685 287 2609 2196 4785 4749 5415 389 96
755 152 1170 179 144 9 767 -3 915 -19z"/>
<path d="M13217 17035 c-89 -25 -160 -67 -238 -145 -115 -114 -159 -220 -159
-386 0 -155 51 -277 159 -384 117 -116 249 -166 416 -157 276 15 493 228 512
504 7 104 -9 188 -54 280 -65 133 -189 239 -332 283 -75 24 -228 26 -304 5z"/>
<path d="M9363 15429 c-359 -60 -562 -471 -390 -793 170 -319 596 -392 857
-147 113 106 171 240 172 397 1 154 -50 280 -158 389 -122 125 -305 183 -481
154z"/>
<path d="M17173 15429 c-191 -32 -358 -176 -423 -365 -64 -184 -18 -399 115
-543 339 -365 944 -133 948 364 1 217 -113 402 -305 493 -117 56 -215 71 -335
51z"/>
<path d="M10422 13927 c-188 -188 -342 -347 -342 -352 0 -5 536 -546 1190
-1200 l1190 -1190 -10 -54 c-5 -30 -10 -97 -10 -150 l0 -96 -225 -104 c-124
-58 -225 -107 -225 -110 0 -7 241 -525 249 -533 3 -4 106 40 229 97 l222 104
87 -69 c97 -78 231 -149 343 -180 95 -27 293 -38 381 -21 l62 13 211 -211 211
-211 353 353 352 352 -211 210 -210 210 7 40 c4 22 8 89 9 149 l2 110 1849
863 c1017 474 1853 864 1859 866 15 5 -241 543 -257 539 -10 -3 -3510 -1631
-3665 -1705 l-41 -20 -59 50 c-80 69 -142 109 -227 148 -152 71 -349 100 -502
76 l-77 -13 -1191 1191 c-655 655 -1196 1191 -1201 1191 -6 0 -164 -154 -353
-343z"/>
<path d="M7701 11514 c-93 -25 -185 -81 -255 -154 -240 -255 -192 -648 102
-838 93 -60 158 -77 292 -77 140 0 203 18 307 87 85 57 144 127 189 223 144
309 -29 673 -362 760 -72 19 -201 18 -273 -1z"/>
<path d="M18752 11516 c-89 -22 -182 -76 -252 -146 -136 -136 -190 -328 -145
-519 44 -184 204 -347 390 -396 75 -19 204 -19 278 0 189 49 343 203 392 392
19 74 19 203 0 278 -36 136 -147 276 -271 342 -111 59 -268 79 -392 49z"/>
<path d="M9368 7620 c-32 -5 -81 -19 -110 -31 -371 -156 -465 -615 -184 -895
345 -344 925 -105 928 382 1 154 -51 283 -157 389 -123 123 -304 182 -477 155z"/>
<path d="M17173 7620 c-194 -35 -358 -177 -423 -366 -105 -305 88 -642 405
-709 88 -18 142 -19 228 0 356 75 537 473 364 799 -62 116 -193 221 -325 260
-69 20 -183 27 -249 16z"/>
<path d="M13255 6000 c-254 -51 -436 -274 -436 -535 0 -137 29 -227 106 -331
65 -87 170 -162 274 -195 98 -32 243 -30 337 3 362 127 490 563 253 861 -125
158 -338 236 -534 197z"/>
<path d="M5516 21090 c-739 -84 -1368 -565 -1639 -1250 -85 -213 -126 -414
-134 -656 -8 -240 20 -468 72 -581 34 -75 106 -147 184 -186 62 -30 72 -32
176 -32 101 0 115 2 168 28 125 62 213 188 223 324 4 43 0 102 -10 161 -18
102 -22 305 -7 392 47 276 162 493 362 685 146 140 323 238 525 292 89 23 124
27 334 32 228 6 237 7 293 33 74 35 157 114 190 181 110 226 -4 489 -243 562
-66 20 -369 29 -494 15z"/>
<path d="M20786 21089 c-138 -16 -256 -100 -318 -227 -31 -62 -33 -74 -33
-167 0 -88 3 -107 28 -159 36 -78 85 -136 146 -176 85 -54 125 -61 327 -60
257 1 401 -29 589 -123 125 -62 212 -124 310 -222 273 -272 397 -645 340
-1020 -29 -182 -19 -270 40 -370 33 -57 106 -122 173 -153 51 -24 69 -27 167
-27 101 0 115 2 170 29 78 39 149 111 185 189 67 142 95 534 57 789 -137 910
-848 1596 -1762 1698 -103 11 -318 11 -419 -1z"/>
</g>
</svg>
